<?xml version="1.0" standalone="no"?><!DOCTYPE svg PUBLIC "-//W3C//DTD SVG 1.1//EN" "http://www.w3.org/Graphics/SVG/1.1/DTD/svg11.dtd"><svg t="1594000605898" class="icon" viewBox="0 0 1024 1024" version="1.1" xmlns="http://www.w3.org/2000/svg" p-id="6712" width="32" height="32" xmlns:xlink="http://www.w3.org/1999/xlink"><defs><style type="text/css"></style></defs><path d="M927.282768 238.320572c0 12.82314-10.395508 23.218648-23.218647 23.218648H119.106532c-12.82314 0-23.218648-10.395508-23.218647-23.218648s10.395508-23.218648 23.218647-23.218647h784.957589c12.82314 0 23.218648 10.395508 23.218647 23.218647zM230.369079 318.604444c12.82314 0 23.218648 10.395508 23.218647 23.218648v563.798358c0 12.82314-10.395508 23.218648-23.218647 23.218648s-23.218648-10.395508-23.218648-23.218648V341.823092c0-12.82314 10.395508-23.218648 23.218648-23.218648zM794.167437 318.604444c12.82314 0 23.218648 10.395508 23.218648 23.218648v563.798358c0 12.82314-10.395508 23.218648-23.218648 23.218648s-23.218648-10.395508-23.218647-23.218648V341.823092c-0.001024-12.82314 10.394484-23.218648 23.218647-23.218648zM370.654679 400.406738c12.82314 0 23.218648 10.395508 23.218647 23.218648v381.546771c0 12.82314-10.395508 23.218648-23.218647 23.218647s-23.218648-10.395508-23.218648-23.218647V423.625386c0-12.82314 10.395508-23.218648 23.218648-23.218648zM512.268258 400.406738c12.82314 0 23.218648 10.395508 23.218647 23.218648v381.546771c0 12.82314-10.395508 23.218648-23.218647 23.218647s-23.218648-10.395508-23.218648-23.218647V423.625386c0-12.82314 10.395508-23.218648 23.218648-23.218648zM653.880813 400.406738c12.82314 0 23.218648 10.395508 23.218648 23.218648v381.546771c0 12.82314-10.395508 23.218648-23.218648 23.218647s-23.218648-10.395508-23.218647-23.218647V423.625386c0-12.82314 10.395508-23.218648 23.218647-23.218648z" fill="#000000" p-id="6713"></path><path d="M207.150431 905.62145c0-12.82314 10.395508-23.218648 23.218648-23.218647h563.798358c12.82314 0 23.218648 10.395508 23.218648 23.218647s-10.395508 23.218648-23.218648 23.218648H230.369079c-12.82314 0-23.218648-10.395508-23.218648-23.218648z" fill="#000000" p-id="6714"></path><path d="M611.201177 141.835762c15.864079 0 28.770154 12.906075 28.770154 28.770154v44.497032H384.564161v-44.497032c0-15.864079 12.906075-28.770154 28.770154-28.770154H611.201177m0-46.438319H413.334315c-41.535956 0-75.207449 33.671493-75.207449 75.207449v90.934328h348.282784v-90.934328c0-41.535956-33.671493-75.207449-75.208473-75.207449z" fill="#000000" p-id="6715"></path></svg>